<?xml version="1.0" encoding="UTF-8" standalone="no"?>
<!DOCTYPE svg PUBLIC "-//W3C//DTD SVG 1.1//EN" "http://www.w3.org/Graphics/SVG/1.1/DTD/svg11.dtd">
<svg width="100%" height="100%" viewBox="0 0 22 5" version="1.1" xmlns="http://www.w3.org/2000/svg" xmlns:xlink="http://www.w3.org/1999/xlink" xml:space="preserve" xmlns:serif="http://www.serif.com/" style="fill-rule:evenodd;clip-rule:evenodd;stroke-linejoin:round;stroke-miterlimit:1.41421;">
    <g transform="matrix(1,0,0,1,-1065,-1633.7)">
        <g transform="matrix(1,0,0,1.03333,-1322,1528.8)">
            <g transform="matrix(1,0,0,0.967742,2376,83.1262)">
                <path d="M13.5,19C14.88,19 16,20.12 16,21.5C16,22.88 14.88,24 13.5,24C12.12,24 11,22.88 11,21.5C11,20.12 12.12,19 13.5,19ZM22,19C23.38,19 24.5,20.12 24.5,21.5C24.5,22.88 23.38,24 22,24C20.62,24 19.5,22.88 19.5,21.5C19.5,20.12 20.62,19 22,19ZM30.5,19C31.88,19 33,20.12 33,21.5C33,22.88 31.88,24 30.5,24C29.12,24 28,22.88 28,21.5C28,20.12 29.12,19 30.5,19Z" style="fill:rgb(131,147,167);"/>
            </g>
        </g>
    </g>
</svg>
