<?xml version="1.0" encoding="UTF-8" standalone="no"?>
<!DOCTYPE svg PUBLIC "-//W3C//DTD SVG 1.1//EN" "http://www.w3.org/Graphics/SVG/1.1/DTD/svg11.dtd">
<svg width="100%" height="100%" viewBox="0 0 81 81" version="1.1" xmlns="http://www.w3.org/2000/svg" xmlns:xlink="http://www.w3.org/1999/xlink" xml:space="preserve" xmlns:serif="http://www.serif.com/" style="fill-rule:evenodd;clip-rule:evenodd;stroke-linejoin:round;stroke-miterlimit:1.41421;">
    <g id="Logo" transform="matrix(0.449977,-0.449977,0.449977,0.449977,-2128.39,1925.9)">
        <g transform="matrix(1,0,0,1,3940,-1120.56)">
            <path d="M520,1390.57L560,1390.57L560,1400.57L530,1400.57L530,1420.57L560,1420.57L560,1430.57L520,1430.57L520,1390.57Z" style="fill:rgb(235,239,243);"/>
        </g>
        <g transform="matrix(1,0,0,1,3930,-1120.56)">
            <path d="M620,1390.57L620,1430.57L610,1430.57L610,1400.57L590,1400.57L590,1430.57L580,1430.57L580,1390.57L620,1390.57Z" style="fill:rgb(235,239,243);"/>
        </g>
        <g id="logo-highlight" transform="matrix(1,0,0,1,3940,-1120.56)">
            <path d="M520,1440.57L560,1440.57L560,1480.57L550,1480.57L550,1450.57L520,1450.57L520,1440.57Z" style="fill:rgb(217,179,16);"/>
        </g>
        <g transform="matrix(1,0,0,1,3930,-1120.56)">
            <path d="M590,1470.57L610,1470.57L610,1450.57L590,1450.57L590,1470.57ZM580,1440.57L620,1440.57L620,1480.57L580,1480.57L580,1440.57Z" style="fill:rgb(235,239,243);"/>
        </g>
    </g>
</svg>
